<svg width="12" height="8" viewBox="0 0 12 8" fill="none" xmlns="http://www.w3.org/2000/svg">
<path d="M0.191807 6.95057L0.584883 7.34638C0.708591 7.46999 0.873178 7.53809 1.04908 7.53809C1.22489 7.53809 1.38967 7.46999 1.51338 7.34638L5.99732 2.86225L10.4864 7.35136C10.6099 7.47497 10.7747 7.54297 10.9505 7.54297C11.1263 7.54297 11.2912 7.47497 11.4148 7.35136L11.808 6.95799C12.064 6.70218 12.064 6.2855 11.808 6.02969L6.46317 0.665646C6.33966 0.542133 6.17507 0.455107 5.99771 0.455107L5.99566 0.455107C5.81975 0.455107 5.65517 0.54223 5.53165 0.665646L0.191807 6.01515C0.0680982 6.13867 0.000194914 6.30823 -1.94455e-07 6.48403C-1.79077e-07 6.65994 0.0680983 6.82716 0.191807 6.95057Z" fill="#4A4B4D"/>
</svg>
