<svg width="33" height="33" viewBox="0 0 33 33" fill="none" xmlns="http://www.w3.org/2000/svg">
<g clip-path="url(#clip0_216_6235)">
<path d="M28.1667 4.83333C25.0486 1.71528 20.9097 0 16.5 0C12.0903 0 7.95139 1.71528 4.83333 4.83333C1.71528 7.95139 0 12.0903 0 16.5C0 20.9097 1.71528 25.0486 4.83333 28.1667C7.95139 31.2847 12.0903 33 16.5 33C20.9097 33 25.0486 31.2847 28.1667 28.1667C31.2847 25.0486 33 20.9097 33 16.5C33 12.0903 31.2847 7.95139 28.1667 4.83333ZM26.8403 26.8403C24.0764 29.6042 20.4028 31.125 16.5 31.125C12.5972 31.125 8.92361 29.6042 6.15972 26.8403C0.458333 21.1389 0.458333 11.8611 6.15972 6.15972C8.92361 3.39583 12.5972 1.875 16.5 1.875C20.4028 1.875 24.0764 3.39583 26.8403 6.15972C32.5417 11.8611 32.5417 21.1389 26.8403 26.8403Z" fill="white"/>
<path d="M23.7708 9.22917C23.4028 8.86111 22.8125 8.86111 22.4444 9.22917L16.5 15.1736L10.5556 9.22917C10.1875 8.86111 9.59722 8.86111 9.22917 9.22917C8.86111 9.59722 8.86111 10.1875 9.22917 10.5556L15.1736 16.5L9.22917 22.4444C8.86111 22.8125 8.86111 23.4028 9.22917 23.7708C9.40972 23.9514 9.65278 24.0486 9.88889 24.0486C10.125 24.0486 10.3681 23.9583 10.5486 23.7708L16.4931 17.8264L22.4375 23.7708C22.6181 23.9514 22.8611 24.0486 23.0972 24.0486C23.3403 24.0486 23.5764 23.9583 23.7569 23.7708C24.125 23.4028 24.125 22.8125 23.7569 22.4444L17.8264 16.5L23.7708 10.5556C24.1389 10.1875 24.1389 9.59722 23.7708 9.22917Z" fill="white"/>
</g>
<defs>
<clipPath id="clip0_216_6235">
<rect width="33" height="33" fill="white"/>
</clipPath>
</defs>
</svg>
