<svg width="23" height="23" viewBox="0 0 23 23" fill="none" xmlns="http://www.w3.org/2000/svg">
<g clip-path="url(#clip0_215_23815)">
<path d="M0.71875 4.05461H11.6619C11.9918 5.55585 13.3324 6.68289 14.9313 6.68289C16.5301 6.68289 17.8708 5.55589 18.2006 4.05461H22.2812C22.6782 4.05461 23 3.73278 23 3.33586C23 2.93893 22.6782 2.61711 22.2812 2.61711H18.2002C17.8698 1.11662 16.5273 -0.0111389 14.9313 -0.0111389C13.3344 -0.0111389 11.9925 1.11645 11.6622 2.61711H0.71875C0.32182 2.61711 0 2.93893 0 3.33586C0 3.73278 0.32182 4.05461 0.71875 4.05461ZM13.0218 3.33774C13.0218 3.33518 13.0219 3.33258 13.0219 3.33002C13.025 2.28033 13.8815 1.42641 14.9313 1.42641C15.9795 1.42641 16.8361 2.27916 16.8406 3.32835L16.8408 3.33891C16.8391 4.3904 15.9832 5.24544 14.9313 5.24544C13.8798 5.24544 13.0242 4.39125 13.0218 3.34039L13.0218 3.33774ZM22.2812 18.9454H18.2002C17.8697 17.4449 16.5273 16.3171 14.9313 16.3171C13.3344 16.3171 11.9925 17.4447 11.6622 18.9454H0.71875C0.32182 18.9454 0 19.2671 0 19.6641C0 20.0611 0.32182 20.3829 0.71875 20.3829H11.6619C11.9918 21.8841 13.3324 23.0111 14.9313 23.0111C16.5301 23.0111 17.8708 21.8841 18.2006 20.3829H22.2812C22.6782 20.3829 23 20.0611 23 19.6641C23 19.2671 22.6782 18.9454 22.2812 18.9454ZM14.9313 21.5736C13.8798 21.5736 13.0242 20.7195 13.0218 19.6686L13.0218 19.666C13.0218 19.6634 13.0219 19.6608 13.0219 19.6583C13.025 18.6086 13.8815 17.7546 14.9313 17.7546C15.9795 17.7546 16.8361 18.6074 16.8406 19.6565L16.8408 19.6671C16.8392 20.7187 15.9832 21.5736 14.9313 21.5736ZM22.2812 10.7813H11.3381C11.0082 9.28001 9.66759 8.15301 8.06873 8.15301C6.46987 8.15301 5.12922 9.28001 4.79941 10.7813H0.71875C0.32182 10.7813 0 11.1031 0 11.5C0 11.897 0.32182 12.2188 0.71875 12.2188H4.79977C5.13026 13.7192 6.4727 14.847 8.06873 14.847C9.66562 14.847 11.0075 13.7194 11.3378 12.2188H22.2812C22.6782 12.2188 23 11.897 23 11.5C23 11.1031 22.6782 10.7813 22.2812 10.7813ZM9.97818 11.4981C9.97818 11.5007 9.97814 11.5033 9.97814 11.5058C9.97499 12.5555 9.11847 13.4095 8.06873 13.4095C7.02048 13.4095 6.16391 12.5567 6.15937 11.5075L6.15924 11.497C6.16081 10.4454 7.0168 9.59051 8.06873 9.59051C9.12017 9.59051 9.97585 10.4447 9.97823 11.4956L9.97818 11.4981Z" fill="white"/>
</g>
<defs>
<clipPath id="clip0_215_23815">
<rect width="23" height="23" fill="white"/>
</clipPath>
</defs>
</svg>
