<svg width="12" height="15" viewBox="0 0 12 15" fill="none" xmlns="http://www.w3.org/2000/svg">
<path d="M5.99999 14.8333C4.97332 14.8333 0.166656 10.1667 0.166656 6.36667C0.166656 4.81958 0.781238 3.33585 1.8752 2.24188C2.96916 1.14792 4.45289 0.53334 5.99999 0.53334C7.54709 0.53334 9.03082 1.14792 10.1248 2.24188C11.2187 3.33585 11.8333 4.81958 11.8333 6.36667C11.8333 10.18 7.02666 14.8333 5.99999 14.8333ZM5.99999 1.52667C4.7175 1.52844 3.48814 2.03915 2.5819 2.94663C1.67567 3.85412 1.16666 5.08418 1.16666 6.36667C1.16666 9.52667 5.10666 13.3933 5.99999 13.8133C6.89332 13.3933 10.8333 9.52667 10.8333 6.36667C10.8333 5.08418 10.3243 3.85412 9.41808 2.94663C8.51184 2.03915 7.28248 1.52844 5.99999 1.52667Z" fill="#4A4B4D" stroke="#4A4B4D" stroke-width="0.3"/>
<path d="M5.99999 9.16667C5.43961 9.16667 4.89181 9.0005 4.42588 8.68916C3.95994 8.37783 3.59678 7.93533 3.38233 7.4176C3.16788 6.89988 3.11177 6.33019 3.2211 5.78058C3.33042 5.23097 3.60027 4.72611 3.99652 4.32987C4.39277 3.93362 4.89762 3.66377 5.44723 3.55444C5.99685 3.44512 6.56654 3.50123 7.08426 3.71568C7.60198 3.93012 8.04449 4.29328 8.35582 4.75922C8.66715 5.22516 8.83332 5.77295 8.83332 6.33333C8.83156 7.08424 8.53249 7.80389 8.00152 8.33486C7.47054 8.86583 6.7509 9.16491 5.99999 9.16667ZM5.99999 4.5C5.63739 4.5 5.28294 4.60752 4.98145 4.80897C4.67996 5.01042 4.44497 5.29675 4.30621 5.63175C4.16745 5.96675 4.13114 6.33537 4.20188 6.691C4.27262 7.04663 4.44723 7.3733 4.70363 7.6297C4.96002 7.88609 5.28669 8.0607 5.64233 8.13144C5.99796 8.20218 6.36658 8.16587 6.70158 8.02711C7.03658 7.88835 7.3229 7.65337 7.52435 7.35188C7.7258 7.05039 7.83332 6.69593 7.83332 6.33333C7.83332 5.8471 7.64017 5.38079 7.29635 5.03697C6.95254 4.69316 6.48622 4.5 5.99999 4.5Z" fill="#4A4B4D" stroke="#4A4B4D" stroke-width="0.3"/>
</svg>
