<svg width="15" height="13" viewBox="0 0 15 13" fill="none" xmlns="http://www.w3.org/2000/svg">
<path d="M13.2421 0.992197H1.75777C1.11057 0.992197 0.585892 1.51688 0.585892 2.16407V3.31972L6.80055 7.94224C7.21569 8.25103 7.78422 8.25103 8.19936 7.94224L14.414 3.31972V2.16407C14.414 1.51688 13.8893 0.992197 13.2421 0.992197Z" stroke="#4A4B4D" stroke-width="1.17187" stroke-miterlimit="10"/>
<path d="M13.8281 5.94629V10.836C13.8281 11.159 13.5653 11.4219 13.2422 11.4219H1.75781C1.43473 11.4219 1.17187 11.159 1.17187 10.836V5.94629L0 5.07465V10.836C0 11.8052 0.788555 12.5938 1.75781 12.5938H13.2422C14.2114 12.5938 15 11.8052 15 10.836V5.07465L13.8281 5.94629Z" fill="#4A4B4D"/>
</svg>
