<svg width="15" height="13" viewBox="0 0 15 13" fill="none" xmlns="http://www.w3.org/2000/svg">
<path d="M13.2421 1.15895H1.75775C1.11055 1.15895 0.585876 1.68362 0.585876 2.33082V3.48646L6.80053 8.10898C7.21567 8.41777 7.78421 8.41777 8.19934 8.10898L14.414 3.48646V2.33082C14.414 1.68362 13.8893 1.15895 13.2421 1.15895Z" stroke="black" stroke-width="1.17187" stroke-miterlimit="10"/>
<path d="M13.8281 6.11301V11.0027C13.8281 11.3257 13.5653 11.5886 13.2422 11.5886H1.75781C1.43473 11.5886 1.17187 11.3257 1.17187 11.0027V6.11301L0 5.24137V11.0027C0 11.9719 0.788555 12.7605 1.75781 12.7605H13.2422C14.2114 12.7605 15 11.9719 15 11.0027V5.24137L13.8281 6.11301Z" fill="black"/>
</svg>
