<svg width="18" height="18" viewBox="0 0 18 18" fill="none" xmlns="http://www.w3.org/2000/svg">
<path d="M13.645 10.9115C13.3174 10.5704 12.9223 10.3881 12.5036 10.3881C12.0882 10.3881 11.6898 10.567 11.3487 10.9081L10.2816 11.9718C10.1938 11.9246 10.106 11.8807 10.0216 11.8368C9.90001 11.776 9.7852 11.7186 9.68727 11.6578C8.6877 11.0229 7.77931 10.1956 6.90807 9.12511C6.48595 8.59156 6.20229 8.14243 5.9963 7.68654C6.27321 7.43328 6.52985 7.16988 6.77975 6.91661C6.8743 6.82206 6.96885 6.72412 7.06341 6.62957C7.77256 5.92042 7.77256 5.0019 7.06341 4.29275L6.14151 3.37085C6.03683 3.26617 5.92876 3.15811 5.82746 3.05005C5.62484 2.84068 5.4121 2.62456 5.1926 2.42194C4.86504 2.09776 4.47332 1.92554 4.06133 1.92554C3.64935 1.92554 3.25088 2.09776 2.91318 2.42194C2.90981 2.42532 2.90981 2.42532 2.90643 2.4287L1.75828 3.58698C1.32604 4.01922 1.07952 4.54602 1.02549 5.15724C0.944446 6.1433 1.23486 7.06182 1.45774 7.66291C2.0048 9.13862 2.82201 10.5063 4.04107 11.9718C5.52016 13.738 7.29979 15.1326 9.33269 16.1153C10.1094 16.4834 11.1461 16.919 12.3044 16.9933C12.3753 16.9967 12.4496 17.0001 12.5171 17.0001C13.2972 17.0001 13.9523 16.7198 14.4656 16.1626C14.469 16.1558 14.4757 16.1525 14.4791 16.1457C14.6547 15.933 14.8573 15.7405 15.0701 15.5345C15.2153 15.396 15.3638 15.2508 15.5091 15.0989C15.8434 14.751 16.019 14.3458 16.019 13.9304C16.019 13.5117 15.84 13.1099 15.4989 12.7722L13.645 10.9115ZM14.8539 14.4674C14.8506 14.4674 14.8506 14.4708 14.8539 14.4674C14.7222 14.6092 14.5872 14.7375 14.442 14.8794C14.2225 15.0887 13.9996 15.3082 13.7902 15.5547C13.4491 15.9194 13.0473 16.0917 12.5205 16.0917C12.4698 16.0917 12.4158 16.0917 12.3652 16.0883C11.3622 16.0241 10.4302 15.6324 9.73116 15.2981C7.81983 14.3728 6.14151 13.0592 4.74685 11.3944C3.59532 10.0065 2.82538 8.72326 2.31547 7.34548C2.00142 6.50463 1.8866 5.84951 1.93726 5.23153C1.97103 4.83643 2.12299 4.50887 2.40327 4.22859L3.5548 3.07706C3.72027 2.92173 3.89587 2.8373 4.06809 2.8373C4.28083 2.8373 4.45306 2.96563 4.56112 3.07369C4.56449 3.07706 4.56787 3.08044 4.57125 3.08382C4.77724 3.2763 4.9731 3.47554 5.17909 3.68828C5.28377 3.79634 5.39184 3.90441 5.4999 4.01584L6.42179 4.93774C6.77975 5.29569 6.77975 5.62663 6.42179 5.98458C6.32386 6.08251 6.22931 6.18044 6.13138 6.275C5.84772 6.56541 5.57757 6.83556 5.28377 7.09896C5.27702 7.10572 5.27027 7.10909 5.26689 7.11585C4.97648 7.40626 5.03051 7.68992 5.09129 7.8824C5.09467 7.89254 5.09804 7.90267 5.10142 7.9128C5.34118 8.49363 5.67887 9.04069 6.19216 9.69243L6.19554 9.69581C7.12757 10.844 8.11025 11.7388 9.19424 12.4243C9.33269 12.5121 9.47452 12.5831 9.6096 12.6506C9.73116 12.7114 9.84598 12.7688 9.94391 12.8296C9.95742 12.8363 9.97093 12.8465 9.98443 12.8532C10.0992 12.9106 10.2073 12.9376 10.3187 12.9376C10.599 12.9376 10.7746 12.762 10.832 12.7046L11.9869 11.5497C12.1018 11.4349 12.2841 11.2965 12.4969 11.2965C12.7062 11.2965 12.8784 11.4282 12.9831 11.543C12.9865 11.5464 12.9865 11.5464 12.9899 11.5497L14.8506 13.4104C15.1984 13.7549 15.1984 14.1094 14.8539 14.4674Z" fill="black"/>
<path d="M14.8539 14.4674C14.8506 14.4674 14.8506 14.4708 14.8539 14.4674ZM14.8539 14.4674C14.7222 14.6092 14.5872 14.7375 14.442 14.8794C14.2225 15.0887 13.9996 15.3082 13.7902 15.5547C13.4491 15.9194 13.0473 16.0917 12.5205 16.0917C12.4698 16.0917 12.4158 16.0917 12.3652 16.0883C11.3622 16.0241 10.4302 15.6324 9.73116 15.2981C7.81983 14.3728 6.14151 13.0592 4.74685 11.3944C3.59532 10.0065 2.82538 8.72326 2.31547 7.34548C2.00142 6.50463 1.8866 5.84951 1.93726 5.23153C1.97103 4.83643 2.12299 4.50887 2.40327 4.22859L3.5548 3.07706C3.72027 2.92173 3.89587 2.8373 4.06809 2.8373C4.28083 2.8373 4.45306 2.96563 4.56112 3.07369C4.56449 3.07706 4.56787 3.08044 4.57125 3.08382C4.77724 3.2763 4.9731 3.47554 5.17909 3.68828C5.28377 3.79635 5.39184 3.90441 5.4999 4.01584L6.42179 4.93774C6.77975 5.29569 6.77975 5.62663 6.42179 5.98458C6.32386 6.08251 6.22931 6.18044 6.13138 6.275C5.84772 6.56541 5.57757 6.83556 5.28378 7.09896C5.27702 7.10572 5.27027 7.10909 5.26689 7.11585C4.97648 7.40626 5.03051 7.68992 5.09129 7.8824C5.09467 7.89254 5.09804 7.90267 5.10142 7.9128C5.34118 8.49363 5.67887 9.04069 6.19216 9.69243L6.19554 9.69581C7.12757 10.844 8.11025 11.7388 9.19424 12.4243C9.33269 12.5121 9.47452 12.5831 9.6096 12.6506C9.73116 12.7114 9.84598 12.7688 9.94391 12.8296C9.95742 12.8363 9.97093 12.8465 9.98443 12.8532C10.0992 12.9106 10.2073 12.9376 10.3187 12.9376C10.599 12.9376 10.7746 12.762 10.832 12.7046L11.9869 11.5497C12.1018 11.4349 12.2841 11.2965 12.4969 11.2965C12.7062 11.2965 12.8784 11.4282 12.9831 11.543C12.9865 11.5464 12.9865 11.5464 12.9899 11.5497L14.8506 13.4104C15.1984 13.7549 15.1984 14.1094 14.8539 14.4674ZM13.645 10.9115C13.3174 10.5704 12.9223 10.3881 12.5036 10.3881C12.0882 10.3881 11.6898 10.567 11.3487 10.9081L10.2816 11.9718C10.1938 11.9246 10.106 11.8807 10.0216 11.8368C9.90001 11.776 9.7852 11.7186 9.68727 11.6578C8.6877 11.0229 7.77931 10.1956 6.90807 9.12511C6.48595 8.59156 6.20229 8.14243 5.9963 7.68654C6.27321 7.43328 6.52985 7.16988 6.77975 6.91661C6.8743 6.82206 6.96885 6.72412 7.06341 6.62957C7.77256 5.92042 7.77256 5.0019 7.06341 4.29275L6.14151 3.37085C6.03683 3.26617 5.92876 3.15811 5.82746 3.05005C5.62484 2.84068 5.4121 2.62456 5.1926 2.42194C4.86504 2.09776 4.47332 1.92554 4.06133 1.92554C3.64935 1.92554 3.25088 2.09776 2.91318 2.42194C2.90981 2.42532 2.90981 2.42532 2.90643 2.4287L1.75828 3.58698C1.32604 4.01922 1.07952 4.54602 1.02549 5.15724C0.944446 6.1433 1.23486 7.06182 1.45774 7.66291C2.0048 9.13862 2.82201 10.5063 4.04107 11.9718C5.52016 13.738 7.29979 15.1326 9.33269 16.1153C10.1094 16.4834 11.1461 16.919 12.3044 16.9933C12.3753 16.9967 12.4496 17.0001 12.5171 17.0001C13.2972 17.0001 13.9523 16.7198 14.4656 16.1626C14.469 16.1558 14.4757 16.1525 14.4791 16.1457C14.6547 15.933 14.8573 15.7405 15.0701 15.5345C15.2153 15.396 15.3638 15.2508 15.5091 15.0989C15.8434 14.751 16.019 14.3458 16.019 13.9304C16.019 13.5117 15.84 13.1099 15.4989 12.7722L13.645 10.9115Z" stroke="black" stroke-width="0.3"/>
<path d="M9.64673 4.80597C10.5315 4.95456 11.3352 5.37329 11.9768 6.01491C12.6184 6.65652 13.0338 7.46022 13.1857 8.34497C13.2229 8.56785 13.4154 8.72319 13.6349 8.72319C13.6619 8.72319 13.6855 8.71981 13.7125 8.71643C13.9624 8.67591 14.1279 8.43953 14.0874 8.18964C13.905 7.11916 13.3985 6.14323 12.6252 5.36992C11.8519 4.5966 10.8759 4.09007 9.80545 3.90771C9.55556 3.86719 9.32255 4.03266 9.27865 4.27917C9.23475 4.52569 9.39684 4.76545 9.64673 4.80597Z" fill="black" stroke="black" stroke-width="0.3"/>
<path d="M16.9814 8.05794C16.6808 6.29519 15.8501 4.69116 14.5736 3.41469C13.2972 2.13821 11.6931 1.3075 9.9304 1.00695C9.68389 0.96305 9.45088 1.1319 9.40698 1.37841C9.36646 1.6283 9.53192 1.86131 9.78182 1.90521C11.3555 2.17198 12.7906 2.91828 13.932 4.0563C15.0734 5.1977 15.8164 6.63288 16.0831 8.20652C16.1203 8.4294 16.3128 8.58474 16.5323 8.58474C16.5593 8.58474 16.5829 8.58136 16.6099 8.57798C16.8564 8.54084 17.0253 8.30445 16.9814 8.05794Z" fill="black" stroke="black" stroke-width="0.3"/>
</svg>
