<svg width="17" height="11" viewBox="0 0 17 11" fill="none" xmlns="http://www.w3.org/2000/svg">
<path d="M15.0731 4.7053C15.3148 4.39279 15.5068 4.14203 15.6485 3.95285C16.6693 2.59569 17.1117 1.72873 16.9761 1.35075L16.9229 1.26223C16.8876 1.20906 16.7959 1.16023 16.6486 1.11603C16.501 1.07187 16.3122 1.06481 16.0822 1.09397L13.5331 1.11195C13.4741 1.10607 13.415 1.10744 13.356 1.11603C13.297 1.12501 13.2587 1.13401 13.2409 1.1426C13.2231 1.15161 13.2084 1.15883 13.1967 1.1647L13.1614 1.19127C13.1319 1.20887 13.0994 1.23994 13.0641 1.28433C13.0286 1.32869 12.9989 1.3801 12.9755 1.43931C12.6982 2.15324 12.3825 2.81716 12.0284 3.43085C11.8101 3.79673 11.6094 4.11412 11.4267 4.38225C11.2437 4.65098 11.0903 4.84859 10.9664 4.97521C10.8425 5.10205 10.7303 5.20405 10.6301 5.2805C10.5296 5.3575 10.453 5.38975 10.4 5.37803C10.3468 5.36631 10.2966 5.35459 10.2495 5.34246C10.1669 5.28951 10.1004 5.21737 10.0504 5.12572C10.0002 5.03448 9.96636 4.91932 9.94854 4.78057C9.93095 4.642 9.92041 4.52241 9.91766 4.42194C9.91453 4.3217 9.9161 4.1802 9.92216 3.99705C9.92804 3.8141 9.93095 3.69041 9.93095 3.62533C9.93095 3.40134 9.93545 3.15784 9.94429 2.89518C9.95308 2.63271 9.96052 2.42456 9.96636 2.27111C9.97224 2.11789 9.97514 1.95547 9.97514 1.78427C9.97514 1.61345 9.9648 1.47897 9.94401 1.38147C9.92331 1.28433 9.89224 1.18993 9.85121 1.09828C9.80979 1.00701 9.74937 0.93605 9.66962 0.886041C9.58992 0.835808 9.49117 0.796145 9.37317 0.766413C9.06025 0.695455 8.66196 0.657548 8.17824 0.651321C7.08065 0.639984 6.3755 0.710719 6.0628 0.863942C5.93889 0.929025 5.8267 1.01736 5.72646 1.12954C5.62015 1.25952 5.60549 1.33044 5.68229 1.34178C6.03642 1.39495 6.28701 1.52199 6.43455 1.7225L6.48772 1.82862C6.52895 1.90562 6.57021 2.04128 6.61162 2.23592C6.65288 2.43059 6.67945 2.64596 6.69137 2.88205C6.72087 3.31279 6.72087 3.68141 6.69137 3.98846C6.66186 4.29548 6.63392 4.53432 6.60735 4.70514C6.58074 4.87634 6.54089 5.0149 6.48791 5.12102C6.43474 5.22753 6.39939 5.29242 6.3816 5.31605C6.36381 5.33949 6.34915 5.35434 6.33743 5.36025C6.26063 5.38956 6.18108 5.40441 6.09844 5.40441C6.01576 5.40441 5.91548 5.36296 5.79745 5.28028C5.67939 5.19802 5.55686 5.08427 5.4302 4.93963C5.30317 4.79523 5.16029 4.59295 5.00081 4.3332C4.84152 4.07385 4.67616 3.7668 4.50515 3.41287L4.36365 3.15605C4.27513 2.99111 4.15412 2.75051 4.00071 2.43487C3.8473 2.11923 3.71145 1.81397 3.59361 1.51867C3.54631 1.39495 3.47555 1.30055 3.38118 1.23547L3.33701 1.2089C3.30751 1.18543 3.26021 1.16023 3.19532 1.13382C3.13024 1.10725 3.06263 1.08809 2.99167 1.07618L0.566457 1.09378C0.318644 1.09378 0.150572 1.15008 0.0620491 1.26223L0.0266654 1.31521C0.00878203 1.34491 0 1.3922 0 1.4569C0 1.52199 0.0177876 1.60154 0.0531712 1.69574C0.407295 2.52793 0.792331 3.33042 1.20822 4.10317C1.62432 4.87634 1.9857 5.499 2.29253 5.971C2.59935 6.44337 2.91206 6.88857 3.23083 7.30759C3.5496 7.7266 3.76047 7.99492 3.86365 8.11279C3.96683 8.23104 4.04794 8.3196 4.10699 8.37839L4.32823 8.59101C4.46974 8.73255 4.67789 8.90215 4.9523 9.09995C5.22668 9.29772 5.53041 9.4924 5.86403 9.68394C6.19727 9.87587 6.58541 10.032 7.02786 10.1532C7.47035 10.2744 7.90108 10.323 8.3201 10.2992H9.33798C9.54457 10.2816 9.70086 10.2169 9.80704 10.1045L9.84239 10.0603C9.86583 10.0251 9.88812 9.97043 9.90882 9.89672C9.92935 9.82305 9.93995 9.74174 9.93995 9.65341C9.93385 9.39976 9.95324 9.17069 9.9974 8.96742C10.0416 8.76378 10.0918 8.61056 10.1479 8.50699C10.204 8.40397 10.2673 8.31682 10.3382 8.24586C10.409 8.1749 10.459 8.13249 10.4887 8.11764C10.5182 8.10318 10.5419 8.09283 10.5595 8.08657C10.701 8.03944 10.8677 8.0852 11.0596 8.22376C11.2513 8.36274 11.4314 8.53353 11.5996 8.73718C11.7677 8.94082 11.9698 9.16928 12.2059 9.42316C12.4418 9.67682 12.6483 9.86562 12.8254 9.98953L13.0025 10.0961C13.1205 10.1666 13.2737 10.2315 13.4627 10.2907C13.6515 10.3496 13.8169 10.3644 13.9584 10.3349L16.2243 10.2993C16.4485 10.2993 16.6226 10.2626 16.7465 10.1887C16.8704 10.1154 16.9441 10.0337 16.9678 9.94539C16.9912 9.85687 16.9928 9.75701 16.9723 9.6446C16.9516 9.5326 16.9309 9.45443 16.9104 9.41026C16.8897 9.3661 16.8704 9.32896 16.8527 9.29964C16.5576 8.76863 15.9941 8.11643 15.1621 7.34348L15.1443 7.32589L15.1355 7.31691L15.1267 7.30829H15.1179C14.7401 6.94829 14.5012 6.70632 14.401 6.58223C14.2181 6.34655 14.1766 6.10752 14.2771 5.86558C14.3474 5.68211 14.6129 5.29555 15.0731 4.7053Z" fill="white"/>
</svg>
